HIERARCHY
ROOT Hips
{
	OFFSET 0.00000 0.00000 0.00000
	CHANNELS 6 Xposition Yposition Zposition Yrotation Zrotation Xrotation 
	JOINT Lumbar
	{
		OFFSET 0 0 0
		CHANNELS 3 Zrotation Xrotation Yrotation
		JOINT Neck
		{
			OFFSET 0.00 0.2701 0.00
			CHANNELS 3 Zrotation Xrotation Yrotation
			End Site
			{
				OFFSET 0.00 0.1379 0.00
			}
		}
		JOINT RightShoulder
		{
			OFFSET 0.0119 0.2289 0.1181
			CHANNELS 3 Zrotation Xrotation Yrotation
			JOINT RightElbow
			{
				OFFSET 0.00 -0.1475 0.00
				CHANNELS 2 Zrotation Yrotation
				JOINT RightWrist
				{
					OFFSET 0.00 -0.1605 0.00
					CHANNELS 2 Zrotation Xrotation
					End Site
					{
						OFFSET 0.0040 -0.1068 0.0006
					}
				}
			}
		}
		JOINT LeftShoulder
		{
			OFFSET 0.0119 0.2289 -0.1181
			CHANNELS 3 Zrotation Xrotation Yrotation
			JOINT LeftElbow
			{
				OFFSET 0.00 -0.1475 0.00
				CHANNELS 2 Zrotation Yrotation
				JOINT LeftWrist
				{
					OFFSET 0.00 -0.1605 0.00
					CHANNELS 2 Zrotation Xrotation
					End Site
					{
						OFFSET 0.0040 -0.1068 -0.0006
					}
				}
			}
		}
	}
	JOINT RightHip
	{
		OFFSET 0.0316 -0.0424 0.0458
		CHANNELS 3 Zrotation Xrotation Yrotation
		JOINT RightKnee
		{
			OFFSET 0.00 -0.2438 0.00
			CHANNELS 1 Zrotation
			JOINT RightAnkle
			{
				OFFSET 0.00 -0.2449 0.00
				CHANNELS 3 Zrotation Xrotation Yrotation
				End Site
				{
					OFFSET 0.1237 -0.0542 0.0051
				}
			}
		}
	}
	JOINT LeftHip
	{
		OFFSET 0.0316 -0.0424 -0.0458
		CHANNELS 3 Zrotation Xrotation Yrotation
		JOINT LeftKnee
		{
			OFFSET 0.00 -0.2438 0.00
			CHANNELS 1 Zrotation
			JOINT LeftAnkle
			{
				OFFSET 0.00 -0.2449 0.00
				CHANNELS 3 Zrotation Xrotation Yrotation
				End Site
				{
					OFFSET 0.1237 -0.0542 -0.0051
				}
			}
		}
	}
}
MOTION
Frames: 11
Frame Time: 0.02
-0.00158 -0.0001 0.0026 139.1846 -35.52473 -3.06631 47.35009 2.29515 -5.91478 -14.11959 -4.09625 -1.46772 -23.94112 -9.70345 -5.76251 37.41179 118.97268 12.3957 6.40157 -28.23043 11.64843 -1.15524 40.96387 -92.10376 11.09222 0.0991 37.4161 -0.69207 -12.51558 -20.40008 -7.18847 -2.27423 -3.35731 37.75796 7.73354 7.24316 -26.98659 -8.22981 3.67886 4.10472
-0.00111 -0.00011 0.00196 139.315 -35.53144 -3.09951 47.25274 2.22835 -6.13687 -14.12309 -4.13679 -1.46846 -23.97562 -9.71062 -5.46052 37.48516 117.39216 12.13061 6.10039 -28.227 11.78686 -1.20671 40.955 -92.04208 11.08235 0.08721 37.41013 -0.58353 -12.57925 -20.41355 -7.19245 -2.28533 -3.36395 37.77172 7.91825 7.43881 -26.99429 -8.19679 3.64179 4.08437
-0.00064 -0.00012 0.00132 139.44523 -35.53822 -3.13261 47.15541 2.16158 -6.3584 -14.12656 -4.17729 -1.46921 -24.01013 -9.71781 -5.15889 37.55834 115.81299 11.86564 5.79928 -28.22343 11.92522 -1.25802 40.94609 -91.98086 11.07248 0.07535 37.40427 -0.47516 -12.64321 -20.42701 -7.1964 -2.29637 -3.37056 37.7856 8.10252 7.63331 -27.00196 -8.16389 3.60484 4.06408
-0.00017 -0.00013 0.00068 139.57527 -35.54493 -3.16571 47.05833 2.09496 -6.57984 -14.13005 -4.21772 -1.46995 -24.04454 -9.72496 -4.85773 37.63149 114.23665 11.60122 5.49886 -28.22 12.06328 -1.30935 40.93724 -91.91925 11.06259 0.06352 37.39833 -0.36694 -12.70675 -20.44044 -7.20036 -2.30744 -3.37717 37.79934 8.28668 7.82827 -27.00963 -8.13097 3.56789 4.04379
0.0003 -0.00014 4e-05 139.70539 -35.55156 -3.19889 46.96131 2.02838 -6.80173 -14.13359 -4.25816 -1.47069 -24.0789 -9.73208 -4.55643 37.70483 112.66059 11.33704 5.19875 -28.21676 12.20129 -1.3608 40.92842 -91.85752 11.05283 0.05159 37.39228 -0.2586 -12.76983 -20.45386 -7.20435 -2.31857 -3.38382 37.81292 8.47123 8.02456 -27.01733 -8.09792 3.5308 4.02342
0.00077 -0.00014 -0.0006 139.83584 -35.55864 -3.23181 46.86331 1.9612 -7.02248 -14.13692 -4.29879 -1.47144 -24.11371 -9.73941 -4.25416 37.77769 111.07519 11.07045 4.8956 -28.21248 12.34037 -1.41178 40.91932 -91.7976 11.0428 0.03983 37.38683 -0.15017 -12.83562 -20.46742 -7.20823 -2.32944 -3.39034 37.82745 8.6549 8.2153 -27.02493 -8.06533 3.49416 4.00333
0.00123 -0.00015 -0.00124 139.9655 -35.56478 -3.26525 46.76747 1.89532 -7.24537 -14.14064 -4.33896 -1.47217 -24.14758 -9.74632 -3.95413 37.85139 109.50953 10.80879 4.59871 -28.21037 12.47714 -1.46376 40.91087 -91.73295 11.03301 0.02796 37.38012 -0.04208 -12.89586 -20.48068 -7.21233 -2.34082 -3.39712 37.84 8.84012 8.41702 -27.03274 -8.03184 3.45665 3.98269
0.00171 -0.00016 -0.00188 140.09587 -35.57184 -3.29818 46.66952 1.82822 -7.46613 -14.14403 -4.37963 -1.47293 -24.18234 -9.75359 -3.65212 37.92439 107.92712 10.54299 4.29641 -28.2061 12.61605 -1.51462 40.90168 -91.67477 11.02356 0.01578 37.37464 0.06637 -12.96129 -20.49421 -7.21621 -2.35172 -3.40365 37.85444 9.02395 8.60856 -27.04033 -7.9992 3.41995 3.96256
0.00219 -0.00017 -0.00253 140.22729 -35.57981 -3.3306 46.56935 1.75965 -7.68503 -14.14693 -4.42065 -1.47367 -24.21813 -9.7614 -3.34711 37.9963 106.31714 10.27028 3.9858 -28.19979 12.75765 -1.56493 40.89212 -91.61619 11.0123 0.00484 37.37044 0.17517 -13.03287 -20.50813 -7.21986 -2.36208 -3.40992 37.87097 9.20603 8.78786 -27.04773 -7.96754 3.38423 3.94303
0.00259 -0.00017 -0.00312 140.35321 -35.58193 -3.36628 46.48302 1.69959 -7.91688 -14.15239 -4.45888 -1.47435 -24.2478 -9.7664 -3.05759 38.07377 104.84433 10.03175 3.71787 -28.20702 12.88402 -1.62085 40.88628 -91.53494 11.00477 -0.00835 37.35822 0.28171 -13.06851 -20.51999 -7.22497 -2.37568 -3.4178 37.87485 9.39803 9.0382 -27.05649 -7.93003 3.34281 3.92001
0.00318 -0.00019 -0.00385 140.49033 -35.59678 -3.39489 46.36686 1.62157 -8.11996 -14.15258 -4.50346 -1.47528 -24.29051 -9.77716 -2.73661 38.13995 103.09638 9.72474 3.36327 -28.18454 13.0423 -1.6634 40.87157 -91.51741 10.99363 -0.01991 37.36333 0.39315 -13.18027 -20.53604 -7.22694 -2.38238 -3.42224 37.9058 9.56916 9.13828 -27.06218 -7.90502 3.31347 3.90438
